<?xml version="1.0" encoding="UTF-8"?>
<svg xmlns="http://www.w3.org/2000/svg" xmlns:xlink="http://www.w3.org/1999/xlink" width="16px" height="16px" viewBox="0 0 16 16" version="1.1">
<g id="surface1">
<path style=" stroke:none;fill-rule:nonzero;fill:rgb(95.294118%,69.01961%,12.941177%);fill-opacity:1;" d="M 5.199219 3.199219 C 5.199219 2.980469 5.019531 2.800781 4.800781 2.800781 C 4.578125 2.800781 4.398438 2.980469 4.398438 3.199219 C 4.398438 3.421875 4.578125 3.601562 4.800781 3.601562 C 5.019531 3.601562 5.199219 3.421875 5.199219 3.199219 Z M 6.398438 3.199219 C 6.398438 3.605469 6.25 3.976562 6 4.257812 L 6.390625 5.039062 C 6.859375 4.886719 7.386719 4.800781 8 4.800781 C 8.613281 4.800781 9.144531 4.886719 9.609375 5.039062 L 10 4.257812 C 9.75 3.976562 9.601562 3.605469 9.601562 3.199219 C 9.601562 2.316406 10.316406 1.601562 11.199219 1.601562 C 12.082031 1.601562 12.800781 2.316406 12.800781 3.199219 C 12.800781 4.082031 12.082031 4.800781 11.199219 4.800781 C 11.15625 4.800781 11.113281 4.796875 11.074219 4.796875 L 10.695312 5.550781 C 11.222656 5.890625 11.636719 6.304688 11.980469 6.710938 C 12.15625 6.917969 12.316406 7.125 12.460938 7.308594 L 12.496094 7.355469 C 12.65625 7.558594 12.789062 7.726562 12.914062 7.863281 C 13.183594 8.15625 13.316406 8.199219 13.398438 8.199219 C 13.460938 8.199219 13.507812 8.183594 13.578125 8.117188 C 13.671875 8.03125 13.753906 7.898438 13.890625 7.683594 L 13.90625 7.660156 C 14.019531 7.476562 14.179688 7.21875 14.390625 7.015625 C 14.632812 6.785156 14.960938 6.601562 15.398438 6.601562 C 15.734375 6.601562 16 6.867188 16 7.199219 C 16 7.53125 15.734375 7.800781 15.398438 7.800781 C 15.335938 7.800781 15.292969 7.816406 15.222656 7.882812 C 15.128906 7.96875 15.046875 8.101562 14.910156 8.316406 L 14.894531 8.339844 C 14.78125 8.523438 14.621094 8.78125 14.410156 8.984375 C 14.167969 9.214844 13.835938 9.398438 13.398438 9.398438 C 12.9375 9.398438 12.578125 9.1875 12.292969 8.933594 C 12.214844 9.035156 12.128906 9.140625 12.03125 9.253906 C 12.066406 9.359375 12.101562 9.464844 12.128906 9.566406 C 12.152344 9.640625 12.175781 9.710938 12.195312 9.78125 C 12.269531 10.023438 12.332031 10.234375 12.410156 10.425781 C 12.507812 10.671875 12.59375 10.8125 12.679688 10.890625 C 12.746094 10.949219 12.828125 10.996094 13 10.996094 C 13.21875 10.996094 13.421875 10.890625 13.84375 10.667969 C 14.21875 10.46875 14.734375 10.199219 15.398438 10.199219 C 15.734375 10.199219 16 10.464844 16 10.796875 C 16 11.128906 15.734375 11.398438 15.398438 11.398438 C 15.066406 11.398438 14.78125 11.527344 14.40625 11.726562 C 14.382812 11.742188 14.355469 11.753906 14.328125 11.769531 C 13.996094 11.949219 13.535156 12.199219 13 12.199219 C 12.539062 12.199219 12.160156 12.046875 11.863281 11.769531 C 11.585938 11.511719 11.414062 11.175781 11.296875 10.871094 C 11.203125 10.644531 11.128906 10.390625 11.058594 10.15625 C 10.648438 10.464844 10.15625 10.746094 9.585938 10.941406 C 9.675781 11.210938 9.796875 11.527344 9.945312 11.84375 C 10.132812 12.242188 10.351562 12.605469 10.589844 12.859375 C 10.824219 13.113281 11.03125 13.199219 11.199219 13.199219 C 11.53125 13.199219 11.800781 13.46875 11.800781 13.800781 C 11.800781 14.132812 11.53125 14.398438 11.199219 14.398438 C 10.570312 14.398438 10.074219 14.0625 9.710938 13.679688 C 9.351562 13.296875 9.070312 12.808594 8.859375 12.355469 C 8.65625 11.929688 8.503906 11.511719 8.398438 11.183594 C 8.269531 11.191406 8.136719 11.199219 8 11.199219 C 7.863281 11.199219 7.730469 11.191406 7.601562 11.183594 C 7.496094 11.507812 7.34375 11.929688 7.140625 12.355469 C 6.929688 12.808594 6.648438 13.296875 6.289062 13.679688 C 5.925781 14.0625 5.429688 14.398438 4.800781 14.398438 C 4.46875 14.398438 4.199219 14.132812 4.199219 13.800781 C 4.199219 13.46875 4.46875 13.199219 4.800781 13.199219 C 4.96875 13.199219 5.175781 13.113281 5.414062 12.859375 C 5.648438 12.605469 5.871094 12.242188 6.058594 11.84375 C 6.203125 11.53125 6.324219 11.210938 6.417969 10.941406 C 5.847656 10.746094 5.355469 10.464844 4.945312 10.15625 C 4.871094 10.390625 4.796875 10.644531 4.707031 10.871094 C 4.585938 11.175781 4.417969 11.511719 4.140625 11.769531 C 3.839844 12.046875 3.460938 12.199219 3 12.199219 C 2.464844 12.199219 2.003906 11.949219 1.671875 11.773438 C 1.644531 11.757812 1.617188 11.742188 1.59375 11.730469 C 1.21875 11.53125 0.933594 11.398438 0.601562 11.398438 C 0.265625 11.398438 0 11.132812 0 10.800781 C 0 10.46875 0.265625 10.199219 0.601562 10.199219 C 1.265625 10.199219 1.78125 10.46875 2.15625 10.671875 C 2.578125 10.894531 2.78125 11 3 11 C 3.171875 11 3.253906 10.953125 3.320312 10.890625 C 3.40625 10.8125 3.496094 10.671875 3.589844 10.429688 C 3.664062 10.238281 3.730469 10.027344 3.804688 9.78125 C 3.824219 9.714844 3.847656 9.640625 3.871094 9.566406 C 3.898438 9.46875 3.933594 9.363281 3.96875 9.253906 C 3.871094 9.140625 3.785156 9.035156 3.707031 8.9375 C 3.421875 9.1875 3.0625 9.398438 2.601562 9.398438 C 2.164062 9.398438 1.832031 9.214844 1.589844 8.984375 C 1.378906 8.78125 1.21875 8.523438 1.105469 8.339844 L 1.089844 8.316406 C 0.953125 8.101562 0.871094 7.96875 0.777344 7.882812 C 0.707031 7.816406 0.664062 7.800781 0.601562 7.800781 C 0.265625 7.800781 0 7.53125 0 7.199219 C 0 6.867188 0.265625 6.601562 0.601562 6.601562 C 1.039062 6.601562 1.367188 6.785156 1.609375 7.015625 C 1.820312 7.21875 1.980469 7.476562 2.09375 7.660156 L 2.109375 7.683594 C 2.246094 7.898438 2.328125 8.03125 2.421875 8.117188 C 2.492188 8.183594 2.539062 8.199219 2.601562 8.199219 C 2.683594 8.199219 2.816406 8.15625 3.085938 7.863281 C 3.210938 7.726562 3.34375 7.558594 3.503906 7.355469 L 3.539062 7.308594 C 3.683594 7.125 3.84375 6.917969 4.019531 6.710938 C 4.363281 6.304688 4.777344 5.890625 5.304688 5.550781 L 4.925781 4.796875 C 4.886719 4.796875 4.84375 4.800781 4.800781 4.800781 C 3.917969 4.800781 3.199219 4.082031 3.199219 3.199219 C 3.199219 2.316406 3.917969 1.601562 4.800781 1.601562 C 5.683594 1.601562 6.398438 2.316406 6.398438 3.199219 Z M 11.601562 3.199219 C 11.601562 2.980469 11.421875 2.800781 11.199219 2.800781 C 10.980469 2.800781 10.800781 2.980469 10.800781 3.199219 C 10.800781 3.421875 10.980469 3.601562 11.199219 3.601562 C 11.421875 3.601562 11.601562 3.421875 11.601562 3.199219 Z M 11.601562 3.199219 "/>
</g>
</svg>
