<?xml version="1.0" encoding="UTF-8"?>
<svg xmlns="http://www.w3.org/2000/svg" xmlns:xlink="http://www.w3.org/1999/xlink" width="128px" height="128px" viewBox="0 0 128 128" version="1.1">
<g id="surface1">
<path style=" stroke:none;fill-rule:nonzero;fill:rgb(95.294118%,69.01961%,12.941177%);fill-opacity:1;" d="M 41.601562 25.601562 C 41.601562 23.832031 40.167969 22.398438 38.398438 22.398438 C 36.632812 22.398438 35.199219 23.832031 35.199219 25.601562 C 35.199219 27.367188 36.632812 28.800781 38.398438 28.800781 C 40.167969 28.800781 41.601562 27.367188 41.601562 25.601562 Z M 51.199219 25.601562 C 51.199219 28.839844 50 31.820312 48 34.058594 L 51.121094 40.300781 C 54.859375 39.101562 59.101562 38.398438 64 38.398438 C 68.898438 38.398438 73.160156 39.101562 76.878906 40.300781 L 80 34.058594 C 78 31.820312 76.800781 28.839844 76.800781 25.601562 C 76.800781 18.539062 82.539062 12.800781 89.601562 12.800781 C 96.660156 12.800781 102.398438 18.539062 102.398438 25.601562 C 102.398438 32.660156 96.660156 38.398438 89.601562 38.398438 C 89.261719 38.398438 88.921875 38.378906 88.578125 38.359375 L 85.558594 44.398438 C 89.78125 47.121094 93.101562 50.441406 95.839844 53.679688 C 97.261719 55.339844 98.539062 57 99.699219 58.480469 L 99.980469 58.839844 C 101.238281 60.460938 102.300781 61.800781 103.320312 62.921875 C 105.460938 65.261719 106.539062 65.601562 107.199219 65.601562 C 107.699219 65.601562 108.058594 65.480469 108.621094 64.941406 C 109.359375 64.238281 110.039062 63.179688 111.121094 61.460938 L 111.238281 61.28125 C 112.160156 59.800781 113.441406 57.761719 115.121094 56.140625 C 117.058594 54.28125 119.699219 52.800781 123.199219 52.800781 C 125.859375 52.800781 128 54.941406 128 57.601562 C 128 60.261719 125.859375 62.398438 123.199219 62.398438 C 122.699219 62.398438 122.339844 62.519531 121.78125 63.058594 C 121.039062 63.761719 120.359375 64.820312 119.28125 66.539062 L 119.160156 66.71875 C 118.238281 68.199219 116.960938 70.238281 115.28125 71.859375 C 113.339844 73.71875 110.699219 75.199219 107.199219 75.199219 C 103.5 75.199219 100.621094 73.5 98.339844 71.480469 C 97.71875 72.28125 97.019531 73.140625 96.238281 74.019531 C 96.519531 74.878906 96.800781 75.71875 97.039062 76.519531 C 97.21875 77.121094 97.398438 77.679688 97.558594 78.238281 C 98.160156 80.199219 98.660156 81.878906 99.28125 83.421875 C 100.058594 85.378906 100.761719 86.5 101.441406 87.121094 C 101.960938 87.601562 102.621094 87.980469 104 87.980469 C 105.738281 87.980469 107.378906 87.140625 110.738281 85.339844 C 113.738281 83.738281 117.878906 81.578125 123.199219 81.578125 C 125.859375 81.578125 128 83.71875 128 86.378906 C 128 89.039062 125.859375 91.179688 123.199219 91.179688 C 120.519531 91.179688 118.261719 92.21875 115.261719 93.820312 C 115.058594 93.941406 114.839844 94.039062 114.621094 94.160156 C 111.980469 95.601562 108.28125 97.601562 104 97.601562 C 100.320312 97.601562 97.28125 96.378906 94.898438 94.160156 C 92.679688 92.101562 91.320312 89.421875 90.359375 86.960938 C 89.640625 85.160156 89.019531 83.140625 88.460938 81.261719 C 85.179688 83.71875 81.238281 85.980469 76.679688 87.519531 C 77.398438 89.679688 78.359375 92.21875 79.558594 94.761719 C 81.058594 97.941406 82.800781 100.839844 84.71875 102.859375 C 86.601562 104.898438 88.238281 105.601562 89.601562 105.601562 C 92.261719 105.601562 94.398438 107.738281 94.398438 110.398438 C 94.398438 113.058594 92.261719 115.199219 89.601562 115.199219 C 84.558594 115.199219 80.601562 112.5 77.699219 109.441406 C 74.800781 106.359375 72.558594 102.460938 70.859375 98.839844 C 69.261719 95.441406 68.039062 92.078125 67.199219 89.460938 C 66.160156 89.539062 65.078125 89.578125 64 89.578125 C 62.921875 89.578125 61.839844 89.539062 60.800781 89.460938 C 59.960938 92.058594 58.738281 95.441406 57.140625 98.839844 C 55.441406 102.460938 53.179688 106.359375 50.300781 109.441406 C 47.398438 112.5 43.441406 115.199219 38.398438 115.199219 C 35.738281 115.199219 33.601562 113.058594 33.601562 110.398438 C 33.601562 107.738281 35.738281 105.601562 38.398438 105.601562 C 39.761719 105.601562 41.398438 104.898438 43.300781 102.859375 C 45.199219 100.839844 46.960938 97.941406 48.460938 94.761719 C 49.640625 92.238281 50.601562 89.679688 51.339844 87.519531 C 46.78125 85.980469 42.839844 83.71875 39.558594 81.261719 C 38.980469 83.140625 38.359375 85.160156 37.660156 86.960938 C 36.699219 89.398438 35.339844 92.078125 33.121094 94.160156 C 30.71875 96.378906 27.679688 97.601562 24 97.601562 C 19.71875 97.601562 16.019531 95.601562 13.378906 94.179688 C 13.160156 94.058594 12.941406 93.941406 12.738281 93.839844 C 9.738281 92.238281 7.480469 91.199219 4.800781 91.199219 C 2.140625 91.199219 0 89.058594 0 86.398438 C 0 83.738281 2.140625 81.601562 4.800781 81.601562 C 10.121094 81.601562 14.261719 83.761719 17.261719 85.359375 C 20.621094 87.160156 22.261719 88 24 88 C 25.359375 88 26.039062 87.621094 26.558594 87.140625 C 27.238281 86.5 27.960938 85.378906 28.71875 83.441406 C 29.320312 81.898438 29.839844 80.21875 30.441406 78.261719 C 30.601562 77.71875 30.78125 77.140625 30.960938 76.539062 C 31.199219 75.738281 31.480469 74.898438 31.761719 74.039062 C 30.980469 73.140625 30.28125 72.28125 29.660156 71.5 C 27.378906 73.5 24.5 75.199219 20.800781 75.199219 C 17.300781 75.199219 14.660156 73.71875 12.71875 71.859375 C 11.039062 70.238281 9.761719 68.199219 8.839844 66.71875 L 8.71875 66.539062 C 7.640625 64.820312 6.960938 63.761719 6.21875 63.058594 C 5.660156 62.519531 5.300781 62.398438 4.800781 62.398438 C 2.140625 62.398438 0 60.261719 0 57.601562 C 0 54.941406 2.140625 52.800781 4.800781 52.800781 C 8.300781 52.800781 10.941406 54.28125 12.878906 56.140625 C 14.558594 57.761719 15.839844 59.800781 16.761719 61.28125 L 16.878906 61.460938 C 17.960938 63.179688 18.640625 64.238281 19.378906 64.941406 C 19.941406 65.480469 20.300781 65.601562 20.800781 65.601562 C 21.460938 65.601562 22.539062 65.261719 24.679688 62.921875 C 25.699219 61.800781 26.761719 60.460938 28.019531 58.839844 L 28.300781 58.480469 C 29.460938 57 30.738281 55.339844 32.160156 53.679688 C 34.921875 50.441406 38.21875 47.121094 42.441406 44.398438 L 39.421875 38.359375 C 39.078125 38.378906 38.738281 38.398438 38.398438 38.398438 C 31.339844 38.398438 25.601562 32.660156 25.601562 25.601562 C 25.601562 18.539062 31.339844 12.800781 38.398438 12.800781 C 45.460938 12.800781 51.199219 18.539062 51.199219 25.601562 Z M 92.800781 25.601562 C 92.800781 23.832031 91.367188 22.398438 89.601562 22.398438 C 87.832031 22.398438 86.398438 23.832031 86.398438 25.601562 C 86.398438 27.367188 87.832031 28.800781 89.601562 28.800781 C 91.367188 28.800781 92.800781 27.367188 92.800781 25.601562 Z M 92.800781 25.601562 "/>
</g>
</svg>
